<svg width="70" height="71" viewBox="0 0 70 71" fill="none" xmlns="http://www.w3.org/2000/svg">
<circle cx="35" cy="35.9131" r="35" fill="#43AAFF"/>
<g clip-path="url(#clip0_126_159)">
<path d="M47.5477 17.9131H22.4523C19.4459 17.9131 17 20.359 17 23.3654V48.4608C17 51.4672 19.4459 53.9131 22.4523 53.9131H47.5477C50.5541 53.9131 53 51.4672 53 48.4608V23.3654C53 20.359 50.5541 17.9131 47.5477 17.9131ZM51.6556 48.4608C51.6556 50.7259 49.8128 52.5687 47.5477 52.5687H22.4523C20.1872 52.5687 18.3444 50.7259 18.3444 48.4608V23.3654C18.3444 21.1003 20.1872 19.2575 22.4523 19.2575H47.5477C49.8128 19.2575 51.6556 21.1003 51.6556 23.3654V48.4608ZM33.805 28.1455C33.805 28.5167 33.5041 28.8177 33.1328 28.8177C32.7615 28.8177 32.4606 28.5167 32.4606 28.1455C32.4606 25.2626 30.1152 22.9172 27.2324 22.9172C24.3495 22.9172 22.0041 25.2626 22.0041 28.1455C22.0041 32.6689 27.3723 35.025 30.7098 32.0496C30.9869 31.8026 31.4119 31.8269 31.6589 32.104C31.9059 32.3811 31.8815 32.806 31.6044 33.0531C27.4084 36.7936 20.6598 33.8332 20.6598 28.1455C20.6598 24.5213 23.6082 21.5728 27.2324 21.5728C30.8565 21.5728 33.805 24.5213 33.805 28.1455ZM24.7676 28.1455C24.7676 29.5045 25.8733 30.6102 27.2324 30.6102C28.5914 30.6102 29.6971 29.5045 29.6971 28.1455C29.6971 26.7864 28.5914 25.6807 27.2324 25.6807C25.8733 25.6807 24.7676 26.7864 24.7676 28.1455ZM28.3527 28.1455C28.3527 28.7632 27.8501 29.2658 27.2324 29.2658C26.6146 29.2658 26.112 28.7632 26.112 28.1455C26.112 27.5277 26.6146 27.0251 27.2324 27.0251C27.8501 27.0251 28.3527 27.5277 28.3527 28.1455ZM40.6017 28.1455C40.6017 29.5045 41.7074 30.6102 43.0664 30.6102C44.4254 30.6102 45.5311 29.5045 45.5311 28.1455C45.5311 26.7864 44.4254 25.6807 43.0664 25.6807C41.7074 25.6807 40.6017 26.7864 40.6017 28.1455ZM44.1867 28.1455C44.1867 28.7632 43.6841 29.2658 43.0664 29.2658C42.4486 29.2658 41.9461 28.7632 41.9461 28.1455C41.9461 27.5277 42.4486 27.0251 43.0664 27.0251C43.6841 27.0251 44.1867 27.5277 44.1867 28.1455ZM48.0527 23.8632C51.6923 28.0978 48.6722 34.7181 43.0664 34.7181C39.4423 34.7181 36.4938 31.7696 36.4938 28.1455C36.4938 24.5213 39.4423 21.5728 43.0664 21.5728C43.4377 21.5728 43.7386 21.8738 43.7386 22.245C43.7386 22.6163 43.4377 22.9172 43.0664 22.9172C40.1836 22.9172 37.8382 25.2626 37.8382 28.1455C37.8382 31.0283 40.1836 33.3737 43.0664 33.3737C47.5376 33.3737 49.9223 28.1009 47.0331 24.7395C46.7911 24.4579 46.8232 24.0335 47.1047 23.7916C47.3862 23.5496 47.8106 23.5817 48.0527 23.8632ZM27.2324 41.5147C25.8733 41.5147 24.7676 42.6204 24.7676 43.9795C24.7676 45.3385 25.8733 46.4442 27.2324 46.4442C28.5914 46.4442 29.6971 45.3385 29.6971 43.9795C29.6971 42.6204 28.5914 41.5147 27.2324 41.5147ZM27.2324 45.0998C26.6146 45.0998 26.112 44.5972 26.112 43.9795C26.112 43.3617 26.6146 42.8591 27.2324 42.8591C27.8501 42.8591 28.3527 43.3617 28.3527 43.9795C28.3527 44.5972 27.8501 45.0998 27.2324 45.0998ZM31.88 48.627C31.6173 48.8895 31.1918 48.8895 30.9292 48.627C30.6667 48.3645 30.6667 47.9389 30.9292 47.6763C34.2149 44.3907 31.8587 38.7513 27.2324 38.7513C24.3495 38.7513 22.0041 41.0966 22.0041 43.9795C22.0041 46.8623 24.3495 49.2077 27.2324 49.2077C27.6036 49.2077 27.9046 49.5086 27.9046 49.8799C27.9046 50.2512 27.6036 50.5521 27.2324 50.5521C23.6082 50.5521 20.6598 47.6036 20.6598 43.9795C20.6598 40.3554 23.6082 37.4069 27.2324 37.4069C33.0514 37.4069 36.009 44.4979 31.88 48.627ZM41.1245 46.2948C40.342 46.2948 39.7054 46.9314 39.7054 47.7139C39.7054 48.4964 40.342 49.133 41.1245 49.133C41.907 49.133 42.5436 48.4964 42.5436 47.7139C42.5436 46.9314 41.907 46.2948 41.1245 46.2948ZM46.3527 46.2948C45.5702 46.2948 44.9336 46.9314 44.9336 47.7139C44.9336 48.4964 45.5702 49.133 46.3527 49.133C47.1352 49.133 47.7718 48.4964 47.7718 47.7139C47.7718 46.9314 47.1352 46.2948 46.3527 46.2948ZM46.3527 41.0666C45.5702 41.0666 44.9336 41.7032 44.9336 42.4857C44.9336 43.2682 45.5702 43.9048 46.3527 43.9048C47.1352 43.9048 47.7718 43.2682 47.7718 42.4857C47.7718 41.7032 47.1352 41.0666 46.3527 41.0666Z" fill="white"/>
</g>
<defs>
<clipPath id="clip0_126_159">
<rect width="36" height="36" fill="white" transform="translate(17 17.9131)"/>
</clipPath>
</defs>
</svg>
