<svg width="29" height="28" viewBox="0 0 29 28" fill="none" xmlns="http://www.w3.org/2000/svg">
<g clip-path="url(#clip0_4_25)">
<path d="M13.8071 0.0161927C6.42775 0.368289 0.604372 6.5267 0.626758 13.9298C0.633574 16.1847 1.17679 18.3129 2.13506 20.1934L0.663779 27.35C0.584191 27.7371 0.932615 28.0761 1.31639 27.985L8.31448 26.3236C10.1124 27.2211 12.1318 27.7394 14.2691 27.7721C21.8116 27.8875 28.1006 21.8862 28.3357 14.3308C28.5877 6.23199 21.9174 -0.370859 13.8071 0.0161927ZM22.1574 21.5756C20.1079 23.6293 17.383 24.7603 14.4847 24.7603C12.7876 24.7603 11.1628 24.3788 9.65532 23.6263L8.68075 23.1398L4.3902 24.1585L5.29333 19.7651L4.8132 18.823C4.03061 17.2871 3.63381 15.6264 3.63381 13.8868C3.63381 10.9824 4.76248 8.25189 6.81193 6.19811C8.84307 4.16274 11.6124 3.0133 14.4849 3.0133C17.3832 3.01337 20.108 4.14439 22.1574 6.19804C24.2069 8.25176 25.3356 10.9823 25.3356 13.8866C25.3356 16.7652 24.1885 19.5403 22.1574 21.5756Z" fill="#7AD06D"/>
<path d="M21.21 16.8985L18.5257 16.1261C18.1728 16.0246 17.7928 16.1249 17.5356 16.3875L16.8792 17.0576C16.6024 17.3402 16.1824 17.431 15.8161 17.2825C14.5463 16.7676 11.8751 14.3877 11.193 13.1972C10.9962 12.8538 11.0287 12.4245 11.2704 12.1112L11.8435 11.3682C12.068 11.0772 12.1154 10.6862 11.9669 10.3497L10.8376 7.79016C10.5671 7.1771 9.78527 6.99864 9.27453 7.4315C8.52535 8.06645 7.63645 9.03134 7.52839 10.1003C7.33788 11.9849 8.14445 14.3607 11.1945 17.2133C14.7182 20.509 17.54 20.9444 19.3772 20.4984C20.4192 20.2455 21.252 19.2315 21.7776 18.4013C22.1359 17.8352 21.853 17.0835 21.21 16.8985Z" fill="#7AD06D"/>
</g>
<defs>
<clipPath id="clip0_4_25">
<rect width="27.9418" height="28" fill="white" transform="translate(0.513519)"/>
</clipPath>
</defs>
</svg>
