<svg width="48" height="37" viewBox="0 0 48 37" fill="none" xmlns="http://www.w3.org/2000/svg">
<path d="M10.6108 30.5215C6.12369 24.2034 11.9832 18.2232 16.6895 13.4178C18.3194 11.7501 19.8679 10.1751 20.6877 8.86867C21.3397 7.82511 21.6616 6.8659 21.6355 5.94043C19.2224 8.70513 15.2332 10.8138 11.1731 12.9C6.79113 15.1516 2.35128 17.6403 0.711592 20.8853C-0.52958 23.3435 0.0335517 26.0867 2.238 28.3097C4.35198 30.4432 8.04535 31.6494 12.1486 32.3082C11.5621 31.7346 11.0482 31.1375 10.6108 30.5215Z" fill="#FFC24D"/>
<path d="M23.3819 0.765747C26.5431 3.69446 27.015 6.5182 24.9776 9.75994C21.6151 15.1099 9.73802 22.36 14.8323 29.5313C17.2543 32.9413 21.4407 34.5603 25.9222 35.0439C19.7742 32.2412 18.9217 28.2961 21.3584 25.2418C24.2849 21.5788 31.6985 18.9711 35.1564 15.0822C39.8171 19.1243 45.7442 29.0463 36.8555 34.273C39.2572 33.6948 41.3068 32.8925 42.7069 32.0294C55.5725 24.1017 43.1674 7.02663 23.3819 0.765747Z" fill="#43AAFF"/>
<path d="M34.9917 21.0381C35.6266 23.2325 37.7463 32.9765 25.2025 36.5809C32.0644 32.4488 34.1678 25.5375 34.9917 21.0381Z" fill="#43AAFF"/>
</svg>
